<svg width="23" height="24" viewBox="0 0 23 24" fill="none" xmlns="http://www.w3.org/2000/svg">
<path d="M13.1291 8.02966C12.8743 8.21875 12.5934 8.37466 12.2938 8.4932C12.0362 8.5875 11.7681 8.65468 11.4946 8.69357C11.4273 8.69357 11.373 8.86498 11.3782 9.04598C11.3835 9.22699 11.4428 9.33559 11.5204 9.33811C11.8675 9.35899 12.2159 9.33306 12.555 9.26083C13.2629 9.1007 13.9096 8.7609 14.4236 8.27904C14.9376 7.79731 15.2987 7.19216 15.4671 6.53077C15.7646 5.41092 15.5082 4.22554 14.7687 3.30095C14.1162 2.47844 13.1458 1.92567 12.0636 1.7598C10.9815 1.59412 9.87276 1.8285 8.97255 2.41309C8.07253 2.99784 7.45192 3.88687 7.24285 4.89177C7.13317 5.43497 7.14904 5.9936 7.28939 6.53073C7.45789 7.19363 7.81976 7.80011 8.33448 8.28318C8.84933 8.76625 9.49737 9.10703 10.2067 9.26803C10.5455 9.34077 10.894 9.36754 11.2411 9.34767C11.329 9.34767 11.3937 9.18586 11.3885 9.00014C11.3833 8.81425 11.3317 8.69605 11.2696 8.68629C10.9969 8.64723 10.7297 8.58005 10.473 8.48592C10.1729 8.36991 9.89095 8.21635 9.63496 8.02962C9.04395 7.59353 8.64327 6.97136 8.50744 6.27967C8.43383 5.89947 8.4443 5.50935 8.53847 5.133C8.63896 4.74523 8.82766 4.38221 9.09193 4.06854C9.64161 3.40917 10.4868 3.02343 11.382 3.02343C12.2773 3.02343 13.1223 3.40918 13.6722 4.06854C13.9372 4.38206 14.127 4.74506 14.2282 5.133C14.3211 5.50781 14.3318 5.89608 14.2592 6.27475C14.1225 6.96813 13.7209 7.59164 13.129 8.02958L13.1291 8.02966Z" fill="#515150"/>
<path d="M22.1575 17.0863C22.1322 17.0548 22.1046 17.025 22.0748 16.9971L22.0308 16.9609L22.005 16.9391L21.604 16.5987L20.867 15.9952C20.6897 15.8408 20.4599 15.7494 20.2177 15.7369C20.002 15.7272 19.7887 15.7831 19.61 15.8962C19.4833 15.9782 19.5349 16.1666 19.685 16.2872V16.2874C19.7651 16.3662 19.8633 16.4273 19.972 16.466C20.081 16.4296 20.2022 16.4652 20.2695 16.5529L20.9238 17.2432L21.2859 17.6174L21.3092 17.6415C21.3178 17.6633 21.3178 17.6873 21.3092 17.7091C21.3052 17.7223 21.2971 17.7341 21.2859 17.7428H21.2704L21.1721 17.8273L20.7169 18.2208C19.4859 19.2951 18.0944 20.5429 16.6616 21.8561L16.4029 22.0975L16.3383 22.1555L16.1366 21.9672L15.8779 21.7138L15.3375 21.2068L14.2332 20.2195L13.6927 19.7197L13.434 19.4783L13.3279 19.3747L13.359 19.3458L13.4883 19.2227L13.747 18.9812L14.2514 18.4985L14.373 18.3803H14.386L14.5101 18.4912L14.999 18.9257L15.9142 19.7561L15.94 19.7778H15.9402C16.1675 19.9772 16.5247 19.9674 16.7392 19.7561C18.0996 18.4155 19.1178 17.3608 19.7936 16.5915C19.8505 16.5263 19.7936 16.3694 19.6385 16.2463C19.4833 16.1232 19.3798 16.087 19.3049 16.1353C18.5703 16.7081 17.5893 17.5305 16.3616 18.6022L15.865 18.1195L15.397 17.6536L15.2781 17.5377L15.2471 17.5088L15.1876 17.4557V17.4555C15.1443 17.419 15.0984 17.3852 15.0505 17.3542C14.8527 17.2289 14.6216 17.157 14.383 17.1469C14.1441 17.1366 13.9071 17.1883 13.6978 17.2963C13.5941 17.3501 13.4983 17.4168 13.4133 17.4943L13.2839 17.6101L12.7667 18.0809L12.508 18.3224L12.3762 18.4431L12.3089 18.5034L12.2546 18.5564C12.2338 18.5781 12.2106 18.5998 12.1925 18.6239H12.1927C12.0307 18.8159 11.9329 19.0481 11.9118 19.2915C11.8907 19.535 11.947 19.7788 12.0736 19.9927C12.1332 20.0947 12.2071 20.189 12.2935 20.2727L12.4254 20.3981L12.6841 20.6396L13.2196 21.144L14.3005 22.1555L15.4022 23.1765C15.5991 23.3488 15.8471 23.4616 16.1137 23.5005C16.3804 23.5392 16.6533 23.502 16.897 23.3937C17.0176 23.34 17.1283 23.2691 17.2256 23.1837L17.2799 23.1354L17.6394 22.7998C19.0643 21.4602 20.4039 20.1616 21.5524 19.0126L21.974 18.5877L22.0878 18.4719H22.0876C22.2702 18.2843 22.3766 18.0432 22.3886 17.79C22.4003 17.5369 22.3167 17.2879 22.1524 17.0864L22.1575 17.0863Z" fill="#515150"/>
<path d="M4.36163 2.69018L4.34088 2.74322L4.30462 2.8301L4.23228 3.00639C4.04556 3.48187 3.91459 3.97473 3.84189 4.47647C3.8049 4.72785 3.78253 4.98074 3.7746 5.23433C3.7746 5.48773 3.79011 5.74132 3.79787 5.99473C3.80563 6.24814 3.86516 6.49918 3.89872 6.75022C3.93227 7.00127 4.00984 7.24998 4.09265 7.49123C4.41034 8.47099 4.9481 9.37619 5.67027 10.1465C6.40361 10.9118 7.304 11.5217 8.31085 11.9352C9.31409 12.3356 10.3959 12.5346 11.4869 12.5193C13.6261 12.5016 15.6563 11.6355 17.0704 10.1373C18.4848 8.63906 19.1496 6.65005 18.899 4.6669C18.8425 4.20116 18.7361 3.74184 18.581 3.29597C18.5431 3.18501 18.5016 3.07556 18.4568 2.96763C18.4155 2.86627 18.3535 2.72618 18.3405 2.6925H18.3403C18.295 2.57161 18.2775 2.44331 18.2887 2.31585C18.3086 2.0621 18.4395 1.82721 18.6508 1.66661C18.8637 1.51524 19.1346 1.45395 19.3982 1.49756C19.6654 1.5383 19.9024 1.68075 20.0525 1.89105C20.0911 1.94594 20.124 2.0042 20.1509 2.06481C20.1896 2.15169 20.2284 2.23622 20.262 2.3231C20.3343 2.49451 20.3991 2.67063 20.4586 2.84458C20.6919 3.52985 20.8353 4.23909 20.8853 4.9567C20.9784 6.29548 20.7487 7.63658 20.2129 8.88157C19.9683 9.44934 19.6632 9.99267 19.3024 10.5037L19.0437 10.8634C18.9481 10.9769 18.8575 11.1048 18.7617 11.2037L18.4438 11.5296C18.3378 11.6455 18.2344 11.7711 18.1361 11.8772C17.4219 12.7244 16.8722 13.6818 16.5119 14.7062C16.4213 14.9596 16.5119 15.2011 16.7163 15.235L16.7161 15.2348C16.9243 15.2395 17.1089 15.1109 17.1635 14.9235C17.5557 13.9989 18.1099 13.1415 18.8034 12.3865C18.899 12.2828 18.9973 12.1813 19.1009 12.0799L19.4294 11.7444C19.538 11.6285 19.6441 11.5029 19.7527 11.3823L20.0525 10.9986C20.9789 9.78545 21.5971 8.39149 21.8607 6.92241C22.1241 5.45315 22.0257 3.94721 21.5731 2.51886C21.5085 2.32085 21.4412 2.12301 21.3637 1.92751C21.3274 1.82851 21.2836 1.73203 21.2448 1.63538C21.1963 1.5091 21.1356 1.38703 21.0637 1.27102C20.7351 0.788763 20.2058 0.456256 19.6035 0.35371C19.0013 0.251001 18.3804 0.387554 17.8904 0.730201C17.5162 0.997414 17.2406 1.36668 17.1016 1.7866C16.9625 2.20654 16.9671 2.65662 17.1144 3.07418C17.174 3.23599 17.2023 3.29391 17.2386 3.39039C17.2748 3.48686 17.3058 3.57139 17.3369 3.66315C17.4635 4.03224 17.5501 4.41227 17.5956 4.79749C17.768 6.40011 17.2306 7.99868 16.1083 9.22216C14.939 10.4717 13.2515 11.1933 11.4738 11.204C10.5852 11.2124 9.70447 11.0481 8.88758 10.7212C8.07323 10.3847 7.34441 9.89097 6.74874 9.27285C6.15898 8.64615 5.7183 7.90984 5.45561 7.11259C5.38579 6.91457 5.35223 6.70949 5.29523 6.50912C5.2384 6.30876 5.22541 6.09879 5.21242 5.89118C5.19943 5.68357 5.18139 5.47596 5.19167 5.26836H5.19185C5.19745 5.06159 5.21458 4.85534 5.24363 4.65042C5.30064 4.23874 5.40545 3.83398 5.55663 3.44349L5.6885 3.12004C5.74786 2.96396 5.7879 2.80198 5.80739 2.63732C5.84798 2.31168 5.80991 1.98183 5.69626 1.67169C5.46517 1.04651 4.93331 0.558736 4.25955 0.353818C3.58592 0.148904 2.84809 0.250773 2.26683 0.628945C1.98179 0.81113 1.74473 1.05123 1.57371 1.33142C1.52969 1.39894 1.49614 1.47386 1.45988 1.54627L1.38483 1.71768C1.33576 1.82864 1.29427 1.93976 1.25043 2.05073C0.681079 3.55787 0.508446 5.17075 0.746937 6.75342C0.985612 8.336 1.62839 9.84176 2.62115 11.144C2.88869 11.4897 3.17789 11.8203 3.48764 12.1338C3.75644 12.4052 4.00775 12.6913 4.2401 12.9906C4.68895 13.5718 5.05732 14.2038 5.33677 14.8711C5.60521 15.5074 5.7885 16.1721 5.88247 16.8503C5.92794 17.1763 5.95373 17.5041 5.96005 17.8328L5.97556 18.8466L6.00912 20.7777V21.3595C6.01507 21.5265 6.07875 21.6873 6.1906 21.8178C6.30245 21.9483 6.45652 22.0416 6.62989 22.0837C6.67228 22.0939 6.71558 22.1012 6.75924 22.1054H7.56366L10.9024 22.0305C11.1844 22.0305 11.4016 21.8614 11.3808 21.6757C11.3218 21.4785 11.1208 21.3487 10.9024 21.3667L7.57899 21.2822H6.95316V20.7874L6.98942 18.8562L7.00494 17.8424C7.00926 17.4749 6.99104 17.1074 6.95063 16.7418C6.86693 15.9765 6.68111 15.2238 6.39717 14.5017C6.10023 13.7413 5.70027 13.0193 5.2074 12.3533C4.95213 12.0105 4.67486 11.6825 4.37716 11.3709C4.1098 11.0887 3.86032 10.792 3.62973 10.4827C2.7764 9.3268 2.23195 7.99677 2.042 6.60429C1.85221 5.21163 2.02233 3.79694 2.53828 2.47837C2.57707 2.38189 2.61585 2.28289 2.65717 2.18876L2.72463 2.05103C2.74268 2.02443 2.75314 1.99311 2.77118 1.96651C2.83955 1.85774 2.93318 1.76446 3.04521 1.69374C3.27378 1.55096 3.55992 1.51442 3.82114 1.5949C4.0829 1.67505 4.28713 1.86835 4.36938 2.11384C4.41376 2.23894 4.42783 2.37162 4.41087 2.50245C4.40221 2.56677 4.3858 2.62991 4.36162 2.69069L4.36163 2.69018Z" fill="#515150"/>
</svg>
