<svg width="22" height="24" viewBox="0 0 22 24" fill="none" xmlns="http://www.w3.org/2000/svg">
<path d="M14 5.5C14 7.433 12.433 9 10.5 9C8.567 9 7 7.433 7 5.5C7 3.567 8.567 2 10.5 2C12.433 2 14 3.567 14 5.5Z" fill="black"/>
<path d="M21.5146 16.8363C21.4894 16.8048 21.4618 16.775 21.432 16.7471L21.388 16.7109L21.3622 16.6891L20.9612 16.3487L20.2242 15.7452C20.0469 15.5908 19.817 15.4994 19.5749 15.4869C19.3592 15.4772 19.1459 15.5331 18.9671 15.6462C18.8405 15.7282 18.8921 15.9166 19.0422 16.0372V16.0374C19.1223 16.1162 19.2204 16.1773 19.3292 16.216C19.4382 16.1796 19.5594 16.2152 19.6267 16.3029L20.281 16.9932L20.6431 17.3674L20.6664 17.3915C20.675 17.4133 20.675 17.4373 20.6664 17.4591C20.6624 17.4723 20.6543 17.4841 20.6431 17.4928H20.6276L20.5293 17.5773L20.0741 17.9708C18.843 19.0451 17.4516 20.2929 16.0188 21.6061L15.7601 21.8475L15.6955 21.9055L15.4938 21.7172L15.2351 21.4638L14.6946 20.9568L13.5904 19.9695L13.0499 19.4697L12.7912 19.2283L12.6851 19.1247L12.7162 19.0958L12.8455 18.9727L13.1042 18.7312L13.6086 18.2485L13.7302 18.1303H13.7432L13.8673 18.2412L14.3562 18.6757L15.2714 19.5061L15.2972 19.5278H15.2974C15.5247 19.7272 15.8819 19.7174 16.0964 19.5061C17.4568 18.1655 18.475 17.1108 19.1508 16.3415C19.2076 16.2763 19.1508 16.1194 18.9957 15.9963C18.8405 15.8732 18.737 15.837 18.6621 15.8853C17.9275 16.4581 16.9465 17.2805 15.7188 18.3522L15.2222 17.8695L14.7542 17.4036L14.6353 17.2877L14.6043 17.2588L14.5447 17.2057V17.2055C14.5014 17.169 14.4556 17.1352 14.4076 17.1042C14.2099 16.9789 13.9788 16.907 13.7401 16.8969C13.5013 16.8866 13.2642 16.9383 13.055 17.0463C12.9512 17.1001 12.8554 17.1668 12.7705 17.2443L12.6411 17.3601L12.1239 17.8309L11.8652 18.0724L11.7333 18.1931L11.6661 18.2534L11.6118 18.3064C11.591 18.3281 11.5677 18.3498 11.5497 18.3739H11.5499C11.3879 18.5659 11.2901 18.7981 11.269 19.0415C11.2479 19.285 11.3042 19.5288 11.4308 19.7427C11.4903 19.8447 11.5643 19.939 11.6507 20.0227L11.7826 20.1481L12.0413 20.3896L12.5767 20.894L13.6577 21.9055L14.7594 22.9265C14.9562 23.0988 15.2043 23.2116 15.4709 23.2505C15.7375 23.2892 16.0105 23.252 16.2542 23.1437C16.3747 23.09 16.4855 23.0191 16.5827 22.9337L16.637 22.8854L16.9966 22.5498C18.4214 21.2102 19.7611 19.9116 20.9096 18.7626L21.3312 18.3377L21.445 18.2219H21.4448C21.6274 18.0343 21.7338 17.7932 21.7457 17.54C21.7575 17.2869 21.6739 17.0379 21.5096 16.8364L21.5146 16.8363Z" fill="black"/>
<path d="M12.4865 7.77978C12.2318 7.96887 11.9509 8.12478 11.6512 8.24333C11.3936 8.33762 11.1255 8.4048 10.852 8.44369C10.7847 8.44369 10.7304 8.6151 10.7357 8.79611C10.7409 8.97711 10.8002 9.08572 10.8778 9.08824C11.2249 9.10912 11.5733 9.08319 11.9124 9.01095C12.6203 8.85083 13.2671 8.51103 13.781 8.02916C14.295 7.54743 14.6562 6.94228 14.8245 6.28089C15.122 5.16104 14.8656 3.97567 14.1262 3.05108C13.4736 2.22856 12.5032 1.67579 11.421 1.50992C10.3389 1.34424 9.23018 1.57862 8.32998 2.16321C7.42995 2.74797 6.80935 3.637 6.60027 4.64189C6.49059 5.18509 6.50646 5.74372 6.64682 6.28085C6.81531 6.94375 7.17718 7.55023 7.6919 8.0333C8.20675 8.51637 8.85479 8.85715 9.56412 9.01815C9.90292 9.09089 10.2515 9.11766 10.5985 9.09779C10.6864 9.09779 10.7512 8.93598 10.7459 8.75026C10.7407 8.56438 10.6891 8.44618 10.627 8.43641C10.3543 8.39735 10.0871 8.33017 9.83038 8.23605C9.53037 8.12003 9.24838 7.96648 8.99238 7.77974C8.40138 7.34366 8.00069 6.72149 7.86486 6.02979C7.79126 5.6496 7.80172 5.25947 7.89589 4.88313C7.99638 4.49535 8.18508 4.13233 8.44935 3.81866C8.99903 3.15929 9.84423 2.77355 10.7394 2.77355C11.6348 2.77355 12.4798 3.1593 13.0296 3.81866C13.2946 4.13218 13.4844 4.49519 13.5856 4.88313C13.6785 5.25793 13.6892 5.6462 13.6167 6.02488C13.4799 6.71825 13.0783 7.34176 12.4864 7.7797L12.4865 7.77978Z" fill="black"/>
<path d="M3.71881 2.44018L3.69806 2.49322L3.6618 2.5801L3.58946 2.75639C3.40274 3.23187 3.27177 3.72473 3.19906 4.22647C3.16208 4.47785 3.13971 4.73074 3.13178 4.98433C3.13178 5.23773 3.14729 5.49132 3.15505 5.74473C3.16281 5.99814 3.22234 6.24918 3.25589 6.50022C3.28945 6.75127 3.36702 6.99998 3.44983 7.24123C3.76752 8.22099 4.30528 9.12619 5.02745 9.89655C5.76079 10.6618 6.66118 11.2717 7.66803 11.6852C8.67126 12.0856 9.75311 12.2846 10.844 12.2693C12.9833 12.2516 15.0135 11.3855 16.4276 9.88728C17.842 8.38906 18.5068 6.40005 18.2562 4.4169C18.1997 3.95116 18.0933 3.49184 17.9381 3.04597C17.9003 2.93501 17.8588 2.82556 17.814 2.71763C17.7727 2.61627 17.7107 2.47618 17.6977 2.4425C17.6524 2.32161 17.6347 2.19331 17.6459 2.06585C17.6657 1.8121 17.7967 1.57721 18.008 1.41661C18.2208 1.26524 18.4918 1.20395 18.7554 1.24756C19.0226 1.2883 19.2596 1.43075 19.4097 1.64105C19.4483 1.69594 19.4812 1.7542 19.508 1.81481C19.5468 1.90169 19.5856 1.98622 19.6192 2.0731C19.6915 2.24451 19.7563 2.42063 19.8158 2.59458C20.0491 3.27985 20.1925 3.98909 20.2425 4.7067C20.3355 6.04548 20.1059 7.38658 19.5701 8.63157C19.3254 9.19934 19.0204 9.74267 18.6596 10.2537L18.4009 10.6134C18.3053 10.7269 18.2147 10.8548 18.1189 10.9537L17.801 11.2796C17.6949 11.3955 17.5916 11.5211 17.4933 11.6272C16.779 12.4744 16.2294 13.4318 15.8691 14.4562C15.7785 14.7096 15.8691 14.9511 16.0735 14.985C16.2817 14.9897 16.466 14.8609 16.5207 14.6735C16.9129 13.7489 17.4671 12.8915 18.1606 12.1365C18.2562 12.0328 18.3545 11.9313 18.4581 11.8299L18.7866 11.4944C18.8952 11.3785 19.0013 11.2529 19.1099 11.1323L19.4097 10.7486C20.3361 9.53545 20.9543 8.14149 21.2179 6.67241C21.4812 5.20315 21.3829 3.69721 20.9303 2.26886C20.8657 2.07085 20.7984 1.87301 20.7208 1.67751C20.6846 1.57851 20.6407 1.48203 20.602 1.38538C20.5534 1.2591 20.4928 1.13703 20.4208 1.02102C20.0923 0.538763 19.563 0.206256 18.9607 0.10371C18.3585 0.00100119 17.7375 0.137554 17.2475 0.480201C16.8734 0.747414 16.5977 1.11668 16.4588 1.5366C16.3197 1.95654 16.3242 2.40662 16.4716 2.82418C16.5312 2.98599 16.5595 3.04391 16.5957 3.14039C16.632 3.23686 16.663 3.32139 16.6941 3.41315C16.8207 3.78224 16.9073 4.16227 16.9528 4.54749C17.1252 6.15011 16.5878 7.74868 15.4655 8.97216C14.2962 10.2217 12.6087 10.9433 10.831 10.954C9.94236 10.9624 9.06165 10.7981 8.24476 10.4712C7.43041 10.1347 6.70159 9.64097 6.10592 9.02285C5.51616 8.39615 5.07548 7.65984 4.81279 6.86259C4.74297 6.66457 4.70941 6.45949 4.6524 6.25912C4.59558 6.05876 4.58259 5.84879 4.5696 5.64118C4.55661 5.43357 4.53857 5.22596 4.54885 5.01836C4.55444 4.81159 4.57176 4.60534 4.60081 4.40042C4.65782 3.98874 4.76263 3.58398 4.91381 3.19349L5.04568 2.87004C5.10504 2.71396 5.14508 2.55198 5.16457 2.38732C5.20516 2.06168 5.16709 1.73183 5.05344 1.42169C4.82234 0.796506 4.29049 0.308736 3.61672 0.103818C2.94309 -0.101096 2.20527 0.000772715 1.62401 0.378945C1.33897 0.56113 1.1019 0.801234 0.930888 1.08142C0.886869 1.14894 0.853314 1.22386 0.817055 1.29627L0.742007 1.46768C0.692938 1.57864 0.651447 1.68976 0.607605 1.80073C0.0382572 3.30787 -0.134376 4.92075 0.104115 6.50342C0.34279 8.086 0.985569 9.59176 1.97833 10.894C2.24587 11.2397 2.53506 11.5703 2.84482 11.8838C3.11362 12.1552 3.36493 12.4413 3.59728 12.7406C4.04613 13.3218 4.41449 13.9538 4.69395 14.6211C4.96239 15.2574 5.14568 15.9221 5.23965 16.6003C5.28511 16.9263 5.31091 17.2541 5.31723 17.5828L5.33274 18.5966L5.3663 20.5277V21.1095C5.37225 21.2765 5.43593 21.4373 5.54778 21.5678C5.65963 21.6983 5.8137 21.7916 5.98706 21.8337C6.02946 21.8439 6.07276 21.8512 6.11641 21.8554H6.92084L10.2596 21.7805C10.5415 21.7805 10.7588 21.6114 10.738 21.4257C10.679 21.2285 10.478 21.0987 10.2596 21.1167L6.93617 21.0322H6.31034V20.5374L6.3466 18.6062L6.36211 17.5924C6.36644 17.2249 6.34822 16.8574 6.30781 16.4918C6.2241 15.7265 6.03829 14.9738 5.75435 14.2517C5.45741 13.4913 5.05745 12.7693 4.56458 12.1033C4.30931 11.7605 4.03204 11.4325 3.73434 11.1209C3.46698 10.8387 3.2175 10.542 2.98691 10.2327C2.13358 9.0768 1.58913 7.74677 1.39917 6.35429C1.20939 4.96163 1.37951 3.54694 1.89546 2.22837C1.93425 2.13189 1.97303 2.03289 2.01434 1.93876L2.08181 1.80103C2.09985 1.77443 2.11032 1.74311 2.12836 1.71651C2.19673 1.60774 2.29036 1.51446 2.40239 1.44374C2.63096 1.30096 2.9171 1.26442 3.17832 1.3449C3.44008 1.42505 3.64431 1.61835 3.72656 1.86384C3.77094 1.98894 3.78501 2.12162 3.76805 2.25245C3.75939 2.31677 3.74298 2.3794 3.71881 2.44018Z" fill="black"/>
</svg>
