<svg width="10" height="12" viewBox="0 0 10 12" fill="none" xmlns="http://www.w3.org/2000/svg">
<path d="M0 10.875C0 11.4961 0.479911 12 1.07143 12H8.92857C9.52009 12 10 11.4961 10 10.875V4.5H0V10.875ZM7.14286 6.28125C7.14286 6.12656 7.26339 6 7.41071 6H8.30357C8.45089 6 8.57143 6.12656 8.57143 6.28125V7.21875C8.57143 7.37344 8.45089 7.5 8.30357 7.5H7.41071C7.26339 7.5 7.14286 7.37344 7.14286 7.21875V6.28125ZM7.14286 9.28125C7.14286 9.12656 7.26339 9 7.41071 9H8.30357C8.45089 9 8.57143 9.12656 8.57143 9.28125V10.2188C8.57143 10.3734 8.45089 10.5 8.30357 10.5H7.41071C7.26339 10.5 7.14286 10.3734 7.14286 10.2188V9.28125ZM4.28571 6.28125C4.28571 6.12656 4.40625 6 4.55357 6H5.44643C5.59375 6 5.71429 6.12656 5.71429 6.28125V7.21875C5.71429 7.37344 5.59375 7.5 5.44643 7.5H4.55357C4.40625 7.5 4.28571 7.37344 4.28571 7.21875V6.28125ZM4.28571 9.28125C4.28571 9.12656 4.40625 9 4.55357 9H5.44643C5.59375 9 5.71429 9.12656 5.71429 9.28125V10.2188C5.71429 10.3734 5.59375 10.5 5.44643 10.5H4.55357C4.40625 10.5 4.28571 10.3734 4.28571 10.2188V9.28125ZM1.42857 6.28125C1.42857 6.12656 1.54911 6 1.69643 6H2.58929C2.73661 6 2.85714 6.12656 2.85714 6.28125V7.21875C2.85714 7.37344 2.73661 7.5 2.58929 7.5H1.69643C1.54911 7.5 1.42857 7.37344 1.42857 7.21875V6.28125ZM1.42857 9.28125C1.42857 9.12656 1.54911 9 1.69643 9H2.58929C2.73661 9 2.85714 9.12656 2.85714 9.28125V10.2188C2.85714 10.3734 2.73661 10.5 2.58929 10.5H1.69643C1.54911 10.5 1.42857 10.3734 1.42857 10.2188V9.28125ZM8.92857 1.5H7.85714V0.375C7.85714 0.16875 7.69643 0 7.5 0H6.78571C6.58929 0 6.42857 0.16875 6.42857 0.375V1.5H3.57143V0.375C3.57143 0.16875 3.41071 0 3.21429 0H2.5C2.30357 0 2.14286 0.16875 2.14286 0.375V1.5H1.07143C0.479911 1.5 0 2.00391 0 2.625V3.75H10V2.625C10 2.00391 9.52009 1.5 8.92857 1.5Z" fill="black"/>
</svg>
