<svg width="20" height="20" viewBox="0 0 20 20" fill="none" xmlns="http://www.w3.org/2000/svg">
<path d="M8.98966 9.10235L8.99132 9.10054C9.48178 8.55753 10.3016 8.50082 10.85 8.95801V11.0417C10.336 11.4673 9.57889 11.4509 9.10305 11.001L9.1031 11.001L9.09966 10.9979C8.53073 10.4922 8.48889 9.63889 8.98966 9.10235ZM14.85 4C14.85 4.63513 15.3649 5.15 16 5.15H19C19.4694 5.15 19.85 5.53056 19.85 6V14C19.85 14.4694 19.4694 14.85 19 14.85H16C15.3649 14.85 14.85 15.3649 14.85 16V17C14.85 17.305 14.9712 17.5975 15.1868 17.8132C15.4025 18.0288 15.695 18.15 16 18.15H17C17.4694 18.15 17.85 18.5306 17.85 19C17.85 19.4694 17.4694 19.85 17 19.85H15.5C15.2576 19.85 14.9087 19.7479 14.6202 19.5772C14.4772 19.4926 14.3566 19.3954 14.2732 19.2934C14.1899 19.1914 14.15 19.0926 14.15 19H14H13.85C13.85 19.0926 13.8101 19.1914 13.7268 19.2934C13.6434 19.3954 13.5228 19.4926 13.3799 19.5772C13.0913 19.7479 12.7424 19.85 12.5 19.85H11C10.5306 19.85 10.15 19.4694 10.15 19C10.15 18.5306 10.5306 18.15 11 18.15H12C12.305 18.15 12.5975 18.0288 12.8132 17.8132C13.0288 17.5975 13.15 17.305 13.15 17V3C13.15 2.695 13.0288 2.40249 12.8132 2.18683C12.5975 1.97116 12.305 1.85 12 1.85H11C10.5306 1.85 10.15 1.46944 10.15 1C10.15 0.530558 10.5306 0.15 11 0.15H12.5C12.7424 0.15 13.0913 0.252054 13.3799 0.422837C13.5228 0.507433 13.6434 0.604585 13.7268 0.706622C13.8101 0.80857 13.85 0.907353 13.85 1H14H14.15C14.15 0.907353 14.1899 0.80857 14.2732 0.706622C14.3566 0.604585 14.4772 0.507433 14.6201 0.422837C14.9087 0.252054 15.2576 0.15 15.5 0.15H17C17.4694 0.15 17.85 0.530558 17.85 1C17.85 1.46944 17.4694 1.85 17 1.85H16C15.695 1.85 15.4025 1.97116 15.1868 2.18683C14.9712 2.40249 14.85 2.695 14.85 3V4ZM0.15 6C0.15 5.53056 0.530558 5.15 1 5.15H10C10.4694 5.15 10.85 5.53056 10.85 6C10.85 6.46944 10.4694 6.85 10 6.85H3C2.36487 6.85 1.85 7.36487 1.85 8V12C1.85 12.6351 2.36487 13.15 3 13.15H10C10.4694 13.15 10.85 13.5306 10.85 14C10.85 14.4694 10.4694 14.85 10 14.85H1C0.530558 14.85 0.15 14.4694 0.15 14V6ZM17 13.15C17.6351 13.15 18.15 12.6351 18.15 12V8C18.15 7.36487 17.6351 6.85 17 6.85H16C15.3649 6.85 14.85 7.36487 14.85 8V12C14.85 12.6351 15.3649 13.15 16 13.15H17ZM5.9546 9.04541C6.20777 9.29858 6.35 9.64196 6.35 10C6.35 10.358 6.20777 10.7014 5.9546 10.9546C5.70142 11.2078 5.35804 11.35 5 11.35C4.64196 11.35 4.29858 11.2078 4.04541 10.9546C3.79223 10.7014 3.65 10.358 3.65 10C3.65 9.64196 3.79223 9.29858 4.04541 9.04541C4.29858 8.79223 4.64196 8.65 5 8.65C5.35804 8.65 5.70142 8.79223 5.9546 9.04541Z" fill="black" stroke="#FAFAFD" stroke-width="0.3"/>
</svg>
