<svg width="20" height="20" viewBox="0 0 20 20" fill="none" xmlns="http://www.w3.org/2000/svg">
<path d="M7.13478 18.4831V15.5846C7.13478 14.8447 7.77217 14.2449 8.55844 14.2449H11.4326C11.8102 14.2449 12.1723 14.386 12.4393 14.6373C12.7063 14.8885 12.8563 15.2293 12.8563 15.5846V18.4831C12.8539 18.7907 12.9821 19.0864 13.2124 19.3048C13.4427 19.5231 13.7561 19.6458 14.0829 19.6458H16.0438C16.9596 19.6481 17.8388 19.3073 18.4872 18.6987C19.1356 18.0901 19.5 17.2637 19.5 16.4019V8.14463C19.5 7.44848 19.1721 6.78814 18.6046 6.34151L11.934 1.32817C10.7737 0.449157 9.11111 0.477538 7.98539 1.39557L1.46701 6.34151C0.872741 6.77498 0.517552 7.43727 0.5 8.14463V16.3935C0.5 18.1897 2.04738 19.6458 3.95617 19.6458H5.87229C6.55123 19.6458 7.103 19.1304 7.10792 18.4915L7.13478 18.4831Z" fill="black"/>
</svg>
