<svg width="20" height="20" viewBox="0 0 20 20" fill="none" xmlns="http://www.w3.org/2000/svg">
<path d="M7.13478 18.483V15.5845C7.13478 14.8447 7.77217 14.2448 8.55844 14.2448H11.4326C11.8102 14.2448 12.1723 14.386 12.4393 14.6372C12.7063 14.8885 12.8563 15.2292 12.8563 15.5845V18.483C12.8539 18.7906 12.9821 19.0864 13.2124 19.3047C13.4427 19.523 13.7561 19.6458 14.0829 19.6458H16.0438C16.9596 19.648 17.8388 19.3072 18.4872 18.6986C19.1356 18.09 19.5 17.2637 19.5 16.4018V8.14458C19.5 7.44843 19.1721 6.7881 18.6046 6.34146L11.934 1.32812C10.7737 0.449112 9.11111 0.477493 7.98539 1.39553L1.46701 6.34146C0.872741 6.77493 0.517552 7.43722 0.5 8.14458V16.3934C0.5 18.1896 2.04738 19.6458 3.95617 19.6458H5.87229C6.55123 19.6458 7.103 19.1303 7.10792 18.4914L7.13478 18.483Z" fill="black"/>
</svg>
