<svg width="32" height="31" viewBox="0 0 32 31" fill="none" xmlns="http://www.w3.org/2000/svg">
<path d="M13.1348 23.4831V20.5846C13.1348 19.8447 13.7722 19.2449 14.5584 19.2449H17.4326C17.8102 19.2449 18.1723 19.386 18.4393 19.6373C18.7063 19.8885 18.8563 20.2293 18.8563 20.5846V23.4831C18.8539 23.7907 18.9821 24.0864 19.2124 24.3048C19.4427 24.5231 19.7561 24.6458 20.0829 24.6458H22.0438C22.9596 24.6481 23.8388 24.3073 24.4872 23.6987C25.1356 23.0901 25.5 22.2637 25.5 21.4019V13.1446C25.5 12.4485 25.1721 11.7881 24.6046 11.3415L17.934 6.32817C16.7737 5.44916 15.1111 5.47754 13.9854 6.39557L7.46701 11.3415C6.87274 11.775 6.51755 12.4373 6.5 13.1446V21.3935C6.5 23.1897 8.04738 24.6458 9.95617 24.6458H11.8723C12.5512 24.6458 13.103 24.1304 13.1079 23.4915L13.1348 23.4831Z" fill="black"/>
</svg>
