<svg width="22" height="22" viewBox="0 0 22 22" fill="none" xmlns="http://www.w3.org/2000/svg">
<path d="M8.13478 19.4831V16.5846C8.13478 15.8447 8.77217 15.2449 9.55844 15.2449H12.4326C12.8102 15.2449 13.1723 15.386 13.4393 15.6373C13.7063 15.8885 13.8563 16.2293 13.8563 16.5846V19.4831C13.8539 19.7907 13.9821 20.0864 14.2124 20.3048C14.4427 20.5231 14.756 20.6458 15.0829 20.6458H17.0438C17.9596 20.6481 18.8388 20.3073 19.4872 19.6987C20.1356 19.0901 20.5 18.2637 20.5 17.4019V9.14463C20.5 8.44848 20.1721 7.78814 19.6046 7.34151L12.934 2.32817C11.7737 1.44916 10.1111 1.47754 8.98539 2.39557L2.46701 7.34151C1.87274 7.77498 1.51755 8.43727 1.5 9.14463V17.3935C1.5 19.1897 3.04738 20.6458 4.95617 20.6458H6.87229C7.55123 20.6458 8.103 20.1304 8.10792 19.4915L8.13478 19.4831Z" stroke="#515150" stroke-width="1.5"/>
</svg>
