<svg width="20" height="20" viewBox="0 0 20 20" fill="none" xmlns="http://www.w3.org/2000/svg">
<path d="M9.21507 0.571289C9.00668 0.571289 8.80683 0.654069 8.65948 0.801419C8.51213 0.948769 8.42935 1.14862 8.42935 1.357C8.42935 1.56539 8.51213 1.76524 8.65948 1.91259C8.80683 2.05994 9.00668 2.14272 9.21507 2.14272H13.1429V4.107C13.1429 4.75758 12.8946 5.22036 12.5143 5.53465C12.1167 5.86229 11.5204 6.07129 10.7857 6.07129C10.5773 6.07129 10.3775 6.15407 10.2301 6.30142C10.0828 6.44877 9.99999 6.64862 9.99999 6.857C9.99999 7.06539 10.0828 7.26524 10.2301 7.41259C10.3775 7.55994 10.5773 7.64272 10.7857 7.64272C11.8032 7.64272 12.7791 7.35436 13.5153 6.74622C14.2664 6.12393 14.7143 5.21172 14.7143 4.107V1.357C14.7143 1.14862 14.6315 0.948769 14.4841 0.801419C14.3368 0.654069 14.1369 0.571289 13.9286 0.571289H9.21507ZM7.58628 4.98307C7.52708 4.83897 7.42638 4.71571 7.29697 4.62897C7.16756 4.54222 7.01529 4.49591 6.85949 4.49591C6.7037 4.49591 6.55142 4.54222 6.42202 4.62897C6.29261 4.71571 6.1919 4.83897 6.13271 4.98307L0.631137 18.3434C0.551742 18.5361 0.552171 18.7525 0.63233 18.945C0.712488 19.1374 0.86581 19.2901 1.05857 19.3695C1.25132 19.4489 1.46772 19.4485 1.66016 19.3683C1.8526 19.2882 2.00531 19.1348 2.08471 18.9421L3.50449 15.4928H10.2145L11.6343 18.9421C11.6736 19.0375 11.7313 19.1243 11.8042 19.1974C11.877 19.2706 11.9635 19.3286 12.0588 19.3683C12.1541 19.408 12.2563 19.4285 12.3595 19.4287C12.4627 19.4289 12.565 19.4088 12.6604 19.3695C12.7559 19.3302 12.8426 19.2725 12.9158 19.1996C12.9889 19.1268 13.047 19.0402 13.0867 18.945C13.1263 18.8497 13.1469 18.7475 13.1471 18.6443C13.1473 18.5411 13.1272 18.4388 13.0879 18.3434L11.5479 14.6034C11.53 14.4689 11.4775 14.3413 11.3954 14.2333L7.58628 4.98307ZM9.56707 13.9221H4.15114L6.85949 7.34572L9.56707 13.9221ZM16.2857 0.571289C16.4941 0.571289 16.6939 0.654069 16.8413 0.801419C16.9886 0.948769 17.0714 1.14862 17.0714 1.357V5.28557H18.6429C18.8512 5.28557 19.0511 5.36836 19.1984 5.51571C19.3458 5.66306 19.4286 5.86291 19.4286 6.07129C19.4286 6.27967 19.3458 6.47952 19.1984 6.62687C19.0511 6.77422 18.8512 6.857 18.6429 6.857H17.0714V13.9284C17.0714 14.1368 16.9886 14.3367 16.8413 14.484C16.6939 14.6314 16.4941 14.7141 16.2857 14.7141C16.0773 14.7141 15.8775 14.6314 15.7301 14.484C15.5828 14.3367 15.5 14.1368 15.5 13.9284V1.357C15.5 1.14862 15.5828 0.948769 15.7301 0.801419C15.8775 0.654069 16.0773 0.571289 16.2857 0.571289Z" fill="black"/>
</svg>
