<svg width="20" height="12" viewBox="0 0 20 12" fill="none" xmlns="http://www.w3.org/2000/svg">
<path d="M19 6.75C19.4142 6.75 19.75 6.41421 19.75 6C19.75 5.58579 19.4142 5.25 19 5.25V6.75ZM0.26053 5.46967C-0.032362 5.76256 -0.032362 6.23744 0.26053 6.53033L5.0335 11.3033C5.3264 11.5962 5.80127 11.5962 6.09416 11.3033C6.38706 11.0104 6.38706 10.5355 6.09416 10.2426L1.85152 6L6.09416 1.75736C6.38706 1.46447 6.38706 0.989593 6.09416 0.696699C5.80127 0.403806 5.3264 0.403806 5.0335 0.696699L0.26053 5.46967ZM19 5.25L0.790861 5.25V6.75L19 6.75V5.25Z" fill="#0D0140"/>
</svg>
