<svg width="45" height="16" viewBox="0 0 45 16" fill="none" xmlns="http://www.w3.org/2000/svg">
<path d="M7.8125 3.90625C7.8125 5.0625 7.41667 5.95312 6.625 6.57812C5.83854 7.19792 4.71094 7.50781 3.24219 7.50781H1.89844V12H0.570312V0.578125H3.53125C6.38542 0.578125 7.8125 1.6875 7.8125 3.90625ZM1.89844 6.36719H3.09375C4.27083 6.36719 5.1224 6.17708 5.64844 5.79688C6.17448 5.41667 6.4375 4.80729 6.4375 3.96875C6.4375 3.21354 6.1901 2.65104 5.69531 2.28125C5.20052 1.91146 4.42969 1.72656 3.38281 1.72656H1.89844V6.36719ZM15.2812 12L15.0234 10.7812H14.9609C14.5339 11.3177 14.1068 11.6823 13.6797 11.875C13.2578 12.0625 12.7292 12.1562 12.0938 12.1562C11.2448 12.1562 10.5781 11.9375 10.0938 11.5C9.61458 11.0625 9.375 10.4401 9.375 9.63281C9.375 7.90365 10.7578 6.9974 13.5234 6.91406L14.9766 6.86719V6.33594C14.9766 5.66406 14.8307 5.16927 14.5391 4.85156C14.2526 4.52865 13.7917 4.36719 13.1562 4.36719C12.4427 4.36719 11.6354 4.58594 10.7344 5.02344L10.3359 4.03125C10.7578 3.80208 11.2188 3.6224 11.7188 3.49219C12.224 3.36198 12.7292 3.29688 13.2344 3.29688C14.2552 3.29688 15.0104 3.52344 15.5 3.97656C15.9948 4.42969 16.2422 5.15625 16.2422 6.15625V12H15.2812ZM12.3516 11.0859C13.1589 11.0859 13.7917 10.8646 14.25 10.4219C14.7135 9.97917 14.9453 9.35938 14.9453 8.5625V7.78906L13.6484 7.84375C12.6172 7.88021 11.8724 8.04167 11.4141 8.32812C10.9609 8.60938 10.7344 9.04948 10.7344 9.64844C10.7344 10.1172 10.875 10.474 11.1562 10.7188C11.4427 10.9635 11.8411 11.0859 12.3516 11.0859ZM17.5625 3.4375H18.9531L20.8281 8.32031C21.2396 9.4349 21.4948 10.2396 21.5938 10.7344H21.6562C21.724 10.4688 21.8646 10.0156 22.0781 9.375C22.2969 8.72917 23.0052 6.75 24.2031 3.4375H25.5938L21.9141 13.1875C21.5495 14.151 21.1224 14.8333 20.6328 15.2344C20.1484 15.6406 19.5521 15.8438 18.8438 15.8438C18.4479 15.8438 18.0573 15.7995 17.6719 15.7109V14.6719C17.9583 14.7344 18.2786 14.7656 18.6328 14.7656C19.5234 14.7656 20.1589 14.2656 20.5391 13.2656L21.0156 12.0469L17.5625 3.4375ZM29.75 11.0859C29.9792 11.0859 30.2005 11.0703 30.4141 11.0391C30.6276 11.0026 30.7969 10.9661 30.9219 10.9297V11.9219C30.7812 11.9896 30.5729 12.0443 30.2969 12.0859C30.026 12.1328 29.7812 12.1562 29.5625 12.1562C27.9062 12.1562 27.0781 11.2839 27.0781 9.53906V4.44531H25.8516V3.82031L27.0781 3.28125L27.625 1.45312H28.375V3.4375H30.8594V4.44531H28.375V9.48438C28.375 10 28.4974 10.3958 28.7422 10.6719C28.987 10.9479 29.3229 11.0859 29.75 11.0859ZM43.5547 12V6.42969C43.5547 5.7474 43.4089 5.23698 43.1172 4.89844C42.8255 4.55469 42.3724 4.38281 41.7578 4.38281C40.9505 4.38281 40.3542 4.61458 39.9688 5.07812C39.5833 5.54167 39.3906 6.25521 39.3906 7.21875V12H38.0938V6.42969C38.0938 5.7474 37.9479 5.23698 37.6562 4.89844C37.3646 4.55469 36.9089 4.38281 36.2891 4.38281C35.4766 4.38281 34.8802 4.6276 34.5 5.11719C34.125 5.60156 33.9375 6.39844 33.9375 7.50781V12H32.6406V3.4375H33.6953L33.9062 4.60938H33.9688C34.2135 4.19271 34.5573 3.86719 35 3.63281C35.4479 3.39844 35.9479 3.28125 36.5 3.28125C37.8385 3.28125 38.7135 3.76562 39.125 4.73438H39.1875C39.4427 4.28646 39.8125 3.93229 40.2969 3.67188C40.7812 3.41146 41.3333 3.28125 41.9531 3.28125C42.9219 3.28125 43.6458 3.53125 44.125 4.03125C44.6094 4.52604 44.8516 5.32031 44.8516 6.41406V12H43.5547Z" fill="#171716"/>
</svg>
