<svg width="19" height="8" viewBox="0 0 19 8" fill="none" xmlns="http://www.w3.org/2000/svg">
<path d="M3.24219 0.861328C4.14714 0.861328 4.82422 1.05827 5.27344 1.45215C5.72591 1.84603 5.95215 2.40592 5.95215 3.13184C5.95215 3.45736 5.90495 3.76986 5.81055 4.06934C5.7194 4.36882 5.56803 4.63574 5.35645 4.87012C5.14811 5.10449 4.86979 5.29004 4.52148 5.42676C4.17643 5.56348 3.75 5.63184 3.24219 5.63184H2.7002V8H0.771484V0.861328H3.24219ZM3.19824 2.41895H2.7002V4.05957H3.08105C3.24707 4.05957 3.40169 4.0319 3.54492 3.97656C3.68815 3.91797 3.80208 3.8252 3.88672 3.69824C3.97461 3.56803 4.01855 3.39551 4.01855 3.18066C4.01855 2.95605 3.95182 2.77376 3.81836 2.63379C3.6849 2.49056 3.47819 2.41895 3.19824 2.41895ZM12.9494 4.2793C12.9494 5.10938 12.7948 5.79948 12.4855 6.34961C12.1763 6.89974 11.7401 7.31315 11.177 7.58984C10.6171 7.86328 9.95788 8 9.19941 8H6.88984V0.861328H9.36055C10.1288 0.861328 10.7798 0.993164 11.3137 1.25684C11.8475 1.52051 12.2528 1.90625 12.5295 2.41406C12.8094 2.92188 12.9494 3.54362 12.9494 4.2793ZM10.9475 4.34766C10.9475 3.91471 10.8889 3.55664 10.7717 3.27344C10.6577 2.98698 10.4852 2.77376 10.2541 2.63379C10.023 2.49056 9.73164 2.41895 9.38008 2.41895H8.81855V6.41797H9.24824C9.83418 6.41797 10.2639 6.2487 10.5373 5.91016C10.8107 5.56836 10.9475 5.04753 10.9475 4.34766ZM15.933 8H14.0336V0.861328H18.2523V2.40918H15.933V3.77148H18.0717V5.31934H15.933V8Z" fill="white"/>
</svg>
