<svg width="42" height="42" viewBox="0 0 42 42" fill="none" xmlns="http://www.w3.org/2000/svg">
<rect width="42" height="42" rx="16" fill="#F0F0F0"/>
<path fill-rule="evenodd" clip-rule="evenodd" d="M24.1613 14.5625C25.6557 14.5625 26.8672 15.774 26.8672 17.2684C26.8672 18.7628 25.6557 19.9743 24.1613 19.9743V21.9743C26.7603 21.9743 28.8672 19.8674 28.8672 17.2684C28.8672 14.6694 26.7603 12.5625 24.1613 12.5625V14.5625Z" fill="black"/>
<path fill-rule="evenodd" clip-rule="evenodd" d="M24.1618 21.9741C27.2481 21.9741 29.75 24.4761 29.75 27.5624H31.75C31.75 23.3715 28.3526 19.9741 24.1618 19.9741V21.9741Z" fill="black"/>
<path fill-rule="evenodd" clip-rule="evenodd" d="M18.25 14.5625C19.8723 14.5625 21.1875 15.8777 21.1875 17.5C21.1875 19.1223 19.8723 20.4375 18.25 20.4375C16.6277 20.4375 15.3125 19.1223 15.3125 17.5C15.3125 15.8777 16.6277 14.5625 18.25 14.5625ZM23.1875 17.5C23.1875 14.7731 20.9769 12.5625 18.25 12.5625C15.5231 12.5625 13.3125 14.7731 13.3125 17.5C13.3125 20.2269 15.5231 22.4375 18.25 22.4375C20.9769 22.4375 23.1875 20.2269 23.1875 17.5Z" fill="black"/>
<path fill-rule="evenodd" clip-rule="evenodd" d="M18.25 22.4375C21.5637 22.4375 24.25 25.1238 24.25 28.4375H26.25C26.25 24.0192 22.6683 20.4375 18.25 20.4375C13.8317 20.4375 10.25 24.0192 10.25 28.4375H12.25C12.25 25.1238 14.9363 22.4375 18.25 22.4375Z" fill="black"/>
</svg>
