<svg width="18" height="22" viewBox="0 0 18 22" fill="none" xmlns="http://www.w3.org/2000/svg">
<path d="M9.0609 2.05292L9 2.02586L8.9391 2.05292L1.9391 5.16292L1.85 5.20251V5.3V10C1.85 14.5808 4.86825 18.8125 8.95579 20.0733L9 20.087L9.04421 20.0733C13.1318 18.8125 16.15 14.5808 16.15 10V5.3V5.20251L16.0609 5.16292L9.0609 2.05292ZM0.15 4.09748L9 0.164148L17.85 4.09748V10C17.85 15.4743 14.0691 20.5882 8.99999 21.8455C3.9309 20.5882 0.15 15.4743 0.15 10V4.09748ZM9.85 6.15V7.85H8.15V6.15H9.85ZM9.85 10.15V15.85H8.15V10.15H9.85Z" fill="black" stroke="#FAFAFD" stroke-width="0.3"/>
</svg>
