<svg width="42" height="42" viewBox="0 0 42 42" fill="none" xmlns="http://www.w3.org/2000/svg">
<rect width="42" height="42" rx="16" fill="#F0F0F0"/>
<path d="M13.062 15.725H16.075V17.875H9.125V10.925H11.275V13.8V14.1748L11.5 13.875C13.6662 10.9892 17.1157 9.125 21 9.125C27.5586 9.125 32.875 14.4414 32.875 21C32.875 27.5586 27.5586 32.875 21 32.875C14.4832 32.875 9.19268 27.626 9.12564 21.125H11.2758C11.3427 26.438 15.6711 30.725 21 30.725C26.3706 30.725 30.725 26.3706 30.725 21C30.725 15.6294 26.3706 11.275 21 11.275C17.6569 11.275 14.7078 12.9613 12.9587 15.5296L12.8256 15.725H13.062ZM19.925 21.4438V15.125H22.075V20.502V20.5538L22.1116 20.5904L25.9148 24.3936L24.3936 25.9148L19.925 21.4438Z" fill="#0D0D26" stroke="white" stroke-width="0.25"/>
</svg>
