<svg width="335" height="75" viewBox="0 0 335 75" fill="none" xmlns="http://www.w3.org/2000/svg">
<path d="M0.758805 68.8279C0.429489 68.0337 0.199557 67.188 0.0845229 66.3061L0.332423 66.2738C0.278058 65.857 0.25 65.4318 0.25 65V63.4722H0V60.4167H0.25V57.3611H0V54.3056H0.25V51.25H0V48.1944H0.25V45.1389H0V42.0833H0.25V39.0278H0V35.9722H0.25V32.9167H0V29.8611H0.25V26.8056H0V23.75H0.25V20.6944H0V17.6389H0.25V14.5833H0V11.5278H0.25V10C0.25 9.56817 0.278058 9.14302 0.332423 8.72624L0.0845231 8.6939C0.199557 7.81203 0.429489 6.96626 0.758806 6.17212L0.989737 6.26788C1.31838 5.47537 1.7486 4.73548 2.26424 4.06449L2.06601 3.91216C2.59836 3.2194 3.21941 2.59836 3.91216 2.06601L4.06449 2.26424C4.73548 1.7486 5.47537 1.31838 6.26789 0.989737L6.17212 0.758805C6.96626 0.429489 7.81203 0.199557 8.69391 0.0845229L8.72624 0.332423C9.14302 0.278058 9.56817 0.25 10 0.25H11.4858V0H14.4575V0.25H17.4292V0H20.4009V0.25H23.3727V0H26.3444V0.25H29.3161V0H32.2878V0.25H35.2595V0H38.2312V0.25H41.2029V0H44.1746V0.25H47.1463V0H50.118V0.25H53.0897V0H56.0615V0.25H59.0332V0H62.0049V0.25H64.9766V0H67.9483V0.25H70.92V0H73.8917V0.25H76.8634V0H79.8351V0.25H82.8068V0H85.7785V0.25H88.7502V0H91.7219V0.25H94.6936V0H97.6652V0.25H100.637V0H103.609V0.25H106.58V0H109.552V0.25H112.524V0H115.495V0.25H118.467V0H121.439V0.25H124.41V0H127.382V0.25H130.354V0H133.326V0.25H136.297V0H139.269V0.25H142.241V0H145.212V0.25H148.184V0H151.156V0.25H154.127V0H157.099V0.25H160.071V0H163.043V0.25H166.014V0H168.986V0.25H171.958V0H174.929V0.25H177.901V0H180.873V0.25H183.844V0H186.816V0.25H189.788V0H192.759V0.25H195.731V0H198.703V0.25H201.675V0H204.646V0.25H207.618V0H210.59V0.25H213.561V0H216.533V0.25H219.505V0H222.476V0.25H225.448V0H228.42V0.25H231.392V0H234.363V0.25H237.335V0H240.307V0.25H243.278V0H246.25V0.25H249.222V0H252.193V0.25H255.165V0H258.137V0.25H261.108V0H264.08V0.25H267.052V0H270.024V0.25H272.995V0H275.967V0.25H278.939V0H281.91V0.25H284.882V0H287.854V0.25H290.825V0H293.797V0.25H296.769V0H299.741V0.25H302.712V0H305.684V0.25H308.656V0H311.627V0.25H314.599V0H317.571V0.25H320.542V0H323.514V0.25H325C325.432 0.25 325.857 0.278058 326.274 0.332423L326.306 0.0845224C327.188 0.199556 328.034 0.429488 328.828 0.758805L328.732 0.989736C329.525 1.31838 330.265 1.7486 330.936 2.26423L331.088 2.06601C331.781 2.59836 332.402 3.21941 332.934 3.91216L332.736 4.06449C333.251 4.73548 333.682 5.47537 334.01 6.26789L334.241 6.17212C334.571 6.96626 334.8 7.81203 334.915 8.69391L334.668 8.72624C334.722 9.14302 334.75 9.56817 334.75 10V11.5278H335V14.5833H334.75V17.6389H335V20.6944H334.75V23.75H335V26.8056H334.75V29.8611H335V32.9167H334.75V35.9722H335V39.0278H334.75V42.0833H335V45.1389H334.75V48.1944H335V51.25H334.75V54.3056H335V57.3611H334.75V60.4167H335V63.4722H334.75V65C334.75 65.4318 334.722 65.857 334.668 66.2738L334.915 66.3061C334.8 67.188 334.57 68.0337 334.241 68.8279L334.01 68.7321C333.682 69.5246 333.251 70.2645 332.736 70.9355L332.934 71.0878C332.402 71.7806 331.781 72.4016 331.088 72.934L330.936 72.7358C330.265 73.2514 329.525 73.6816 328.732 74.0103L328.828 74.2412C328.034 74.5705 327.188 74.8004 326.306 74.9155L326.274 74.6676C325.857 74.7219 325.432 74.75 325 74.75H323.514V75H320.542V74.75H317.571V75H314.599V74.75H311.627V75H308.656V74.75H305.684V75H302.712V74.75H299.741V75H296.769V74.75H293.797V75H290.825V74.75H287.854V75H284.882V74.75H281.91V75H278.939V74.75H275.967V75H272.995V74.75H270.023V75H267.052V74.75H264.08V75H261.108V74.75H258.137V75H255.165V74.75H252.193V75H249.222V74.75H246.25V75H243.278V74.75H240.306V75H237.335V74.75H234.363V75H231.391V74.75H228.42V75H225.448V74.75H222.476V75H219.505V74.75H216.533V75H213.561V74.75H210.589V75H207.618V74.75H204.646V75H201.674V74.75H198.703V75H195.731V74.75H192.759V75H189.788V74.75H186.816V75H183.844V74.75H180.873V75H177.901V74.75H174.929V75H171.957V74.75H168.986V75H166.014V74.75H163.042V75H160.071V74.75H157.099V75H154.127V74.75H151.156V75H148.184V74.75H145.212V75H142.24V74.75H139.269V75H136.297V74.75H133.325V75H130.354V74.75H127.382V75H124.41V74.75H121.439V75H118.467V74.75H115.495V75H112.524V74.75H109.552V75H106.58V74.75H103.608V75H100.637V74.75H97.6651V75H94.6934V74.75H91.7217V75H88.75V74.75H85.7783V75H82.8066V74.75H79.8349V75H76.8632V74.75H73.8915V75H70.9198V74.75H67.9481V75H64.9764V74.75H62.0047V75H59.033V74.75H56.0613V75H53.0896V74.75H50.1179V75H47.1462V74.75H44.1745V75H41.2028V74.75H38.2311V75H35.2594V74.75H32.2877V75H29.316V74.75H26.3443V75H23.3726V74.75H20.4009V75H17.4292V74.75H14.4575V75H11.4858V74.75H9.99999C9.56816 74.75 9.14301 74.7219 8.72623 74.6676L8.6939 74.9155C7.81202 74.8004 6.96625 74.5705 6.17211 74.2412L6.26788 74.0103C5.47536 73.6816 4.73548 73.2514 4.06449 72.7358L3.91215 72.934C3.2194 72.4016 2.59835 71.7806 2.066 71.0878L2.26423 70.9355C1.7486 70.2645 1.31838 69.5246 0.989735 68.7321L0.758805 68.8279Z" stroke="#9D97B5" stroke-width="0.5" stroke-dasharray="3 3"/>
</svg>
