<svg width="42" height="42" viewBox="0 0 42 42" fill="none" xmlns="http://www.w3.org/2000/svg">
<rect width="42" height="42" rx="16" fill="#F0F0F0"/>
<path fill-rule="evenodd" clip-rule="evenodd" d="M21 25C21 24.4477 21.4477 24 22 24H31C31.5523 24 32 24.4477 32 25V31C32 31.5523 31.5523 32 31 32H22C21.4477 32 21 31.5523 21 31V25ZM23 26V30H30V26H23Z" fill="black"/>
<path fill-rule="evenodd" clip-rule="evenodd" d="M21 25C21 24.4477 21.4477 24 22 24H31C31.5523 24 32 24.4477 32 25V27C32 27.4687 31.6745 27.8745 31.2169 27.9762L26.7169 28.9762C26.5741 29.0079 26.4259 29.0079 26.2831 28.9762L21.7831 27.9762C21.3255 27.8745 21 27.4687 21 27V25ZM23 26V26.1978L26.5 26.9756L30 26.1978V26H23Z" fill="black"/>
<path fill-rule="evenodd" clip-rule="evenodd" d="M26 23C25.4477 23 25 23.4477 25 24H28C28 23.4477 27.5523 23 27 23H26ZM23 24C23 22.3431 24.3431 21 26 21H27C28.6569 21 30 22.3431 30 24V25C30 25.5523 29.5523 26 29 26H24C23.4477 26 23 25.5523 23 25V24Z" fill="black"/>
<path fill-rule="evenodd" clip-rule="evenodd" d="M14 12C12.8954 12 12 12.8954 12 14V28C12 29.1046 12.8954 30 14 30H19V32H14C11.7909 32 10 30.2091 10 28V14C10 11.7909 11.7909 10 14 10H21C21.2652 10 21.5196 10.1054 21.7071 10.2929L27.7071 16.2929C27.8946 16.4804 28 16.7348 28 17V19H26V17.4142L20.5858 12H14Z" fill="black"/>
<path fill-rule="evenodd" clip-rule="evenodd" d="M20.6173 10.0761C20.991 9.92137 21.4211 10.0069 21.7071 10.2929L27.7071 16.2929C27.9931 16.5789 28.0787 17.009 27.9239 17.3827C27.7691 17.7564 27.4045 18 27 18H24C21.7909 18 20 16.2092 20 14V11C20 10.5956 20.2436 10.2309 20.6173 10.0761ZM22 13.4142V14C22 15.1046 22.8954 16 24 16H24.5858L22 13.4142Z" fill="black"/>
<path fill-rule="evenodd" clip-rule="evenodd" d="M18 17H15V15H18V17Z" fill="black"/>
<path fill-rule="evenodd" clip-rule="evenodd" d="M20 22H15V20H20V22Z" fill="black"/>
<path fill-rule="evenodd" clip-rule="evenodd" d="M18 27H15V25H18V27Z" fill="black"/>
</svg>
