<svg width="19" height="23" viewBox="0 0 19 23" fill="none" xmlns="http://www.w3.org/2000/svg">
<path fill-rule="evenodd" clip-rule="evenodd" d="M3.49888 0C2.08773 0 0.928589 1.08187 0.928589 2.39894V22.0236C0.928788 22.2659 1.06964 22.489 1.29649 22.6066C1.52333 22.7243 1.80065 22.718 2.02113 22.5901L9.50002 18.2601L16.9789 22.5901C17.1994 22.718 17.4767 22.7243 17.7035 22.6066C17.9304 22.489 18.0712 22.2659 18.0714 22.0236V2.39894C18.0714 1.08187 16.9123 0 15.5012 0H3.49888ZM3.49888 1.33495H15.5004C16.1446 1.33495 16.6404 1.79768 16.6404 2.39894V20.8267L9.87454 16.9105C9.64471 16.7785 9.35501 16.7785 9.12517 16.9105L2.3593 20.8267V2.39894C2.3593 1.79768 2.85508 1.33495 3.49929 1.33495H3.49888Z" fill="#515150"/>
</svg>
