<svg width="19" height="23" viewBox="0 0 19 23" fill="none" xmlns="http://www.w3.org/2000/svg">
<path d="M2 1H17V21L9.82609 17.25L2 21V1Z" fill="black"/>
<path fill-rule="evenodd" clip-rule="evenodd" d="M3.499 0C2.08785 0 0.928711 1.08187 0.928711 2.39894V22.0236C0.92891 22.2659 1.06976 22.489 1.29661 22.6066C1.52345 22.7243 1.80077 22.718 2.02126 22.5901L9.50014 18.2601L16.979 22.5901C17.1995 22.718 17.4768 22.7243 17.7037 22.6066C17.9305 22.489 18.0714 22.2659 18.0716 22.0236V2.39894C18.0716 1.08187 16.9124 0 15.5013 0H3.499ZM3.499 1.33495H15.5006C16.1448 1.33495 16.6405 1.79768 16.6405 2.39894V20.8267L9.87467 16.9105C9.64483 16.7785 9.35513 16.7785 9.1253 16.9105L2.35942 20.8267V2.39894C2.35942 1.79768 2.8552 1.33495 3.49941 1.33495H3.499Z" fill="black"/>
</svg>
